<?xml version="1.0" standalone="no"?>
<!DOCTYPE svg PUBLIC "-//W3C//DTD SVG 20010904//EN"
 "http://www.w3.org/TR/2001/REC-SVG-20010904/DTD/svg10.dtd">
<svg version="1.0" xmlns="http://www.w3.org/2000/svg"
 width="512.000000pt" height="512.000000pt" viewBox="0 0 512.000000 512.000000"
 preserveAspectRatio="xMidYMid meet">
<metadata>
Created by potrace 1.11, written by Peter Selinger 2001-2013
</metadata>
<g transform="translate(0.000000,512.000000) scale(0.100000,-0.100000)"
fill="#000000" stroke="none">
<path d="M1625 4619 c-130 -18 -172 -30 -278 -79 -145 -67 -294 -191 -385
-320 -46 -66 -122 -216 -122 -242 0 -8 -5 -19 -12 -26 -7 -7 -9 -12 -6 -12 3
0 0 -24 -8 -52 -21 -75 -25 -276 -8 -368 33 -174 109 -335 222 -469 l30 -35
96 97 c54 53 101 97 107 97 17 0 9 22 -21 59 -39 46 -41 49 -67 96 -25 46 -59
136 -68 180 -12 53 -14 225 -4 258 6 18 12 43 15 57 3 14 23 62 45 108 57 118
170 231 289 289 47 23 109 47 139 54 58 13 200 21 215 11 5 -3 25 -6 45 -7 20
-2 64 -12 98 -24 141 -48 149 -55 838 -743 358 -356 673 -664 700 -684 167
-119 381 -153 548 -87 192 76 332 268 338 465 2 31 6 45 13 41 6 -3 5 0 -1 8
-7 7 -13 27 -13 45 0 42 -45 178 -77 234 -45 79 -90 128 -429 466 -303 303
-335 332 -373 339 -51 8 -100 -7 -134 -43 -48 -50 -59 -109 -31 -165 9 -18
164 -180 345 -361 306 -306 372 -380 381 -431 1 -11 6 -22 10 -26 14 -10 15
-104 2 -142 -19 -55 -49 -92 -102 -129 -42 -29 -54 -33 -117 -32 -126 1 -151
19 -457 322 -147 146 -264 270 -261 275 3 6 2 7 -4 4 -5 -3 -169 155 -365 351
-195 196 -373 374 -396 394 -70 65 -213 148 -312 181 -123 42 -311 62 -425 46z"/>
<path d="M1958 3285 c-2 -2 -32 -6 -67 -9 -128 -12 -289 -63 -380 -120 -22
-14 -44 -26 -49 -26 -5 0 -17 -9 -27 -20 -10 -12 -25 -18 -32 -16 -7 3 -12 1
-10 -4 1 -5 -6 -15 -16 -22 -16 -12 -8 -22 88 -118 l104 -104 49 17 c96 35
207 26 289 -24 21 -12 89 -72 151 -133 142 -140 175 -199 176 -314 1 -52 -5
-93 -18 -125 l-18 -49 88 -92 c49 -52 94 -94 99 -95 6 0 156 145 335 324 l325
325 -120 122 c-66 67 -124 124 -129 127 -5 2 -28 20 -50 41 -23 20 -63 52 -91
71 -27 19 -52 37 -55 40 -3 3 -36 23 -75 45 -157 89 -308 137 -470 150 -38 3
-75 7 -82 9 -6 2 -13 2 -15 0z"/>
<path d="M1195 2877 c-125 -172 -184 -339 -190 -537 -4 -134 5 -203 39 -321
30 -102 72 -195 139 -304 67 -109 133 -189 286 -346 l131 -134 325 325 c179
179 325 328 325 332 0 7 -123 133 -168 171 -20 18 -22 18 -75 -2 -41 -15 -74
-19 -128 -17 -112 3 -161 32 -302 173 -65 65 -126 132 -135 148 -51 84 -63
194 -31 280 11 28 19 55 19 62 0 11 -148 165 -191 200 -11 9 -20 4 -44 -30z"/>
<path d="M1685 2689 c-85 -26 -132 -139 -91 -217 18 -33 202 -215 235 -232 56
-29 153 -3 192 51 29 41 36 117 14 160 -24 45 -201 218 -242 236 -37 15 -64
15 -108 2z"/>
<path d="M2453 1826 l-722 -722 113 -110 c198 -191 361 -303 533 -365 32 -11
65 -23 73 -26 18 -7 24 -9 119 -27 92 -18 251 -18 351 0 312 55 613 310 739
625 29 74 61 205 61 254 0 18 4 24 13 19 9 -6 9 -5 0 7 -6 8 -11 43 -11 79 1
93 -24 224 -63 329 -21 57 -89 203 -99 211 -3 3 -21 30 -40 60 -19 30 -42 63
-50 74 -71 89 -147 172 -241 263 l-54 52 -722 -723z"/>
</g>
</svg>
